<svg xmlns="http://www.w3.org/2000/svg" viewBox="0 0 1280 720" width="1280" height="720" preserveAspectRatio="xMidYMid slice">
  <defs><linearGradient id="hb" x1="0" y1="0" x2="1" y2="1">
  <stop offset="0" stop-color="#0b1b33"/><stop offset="1" stop-color="#12305a"/>
</linearGradient></defs><rect width="1280" height="720" fill="url(#hb)"/>
  <defs><radialGradient id="hg1" cx="1000" cy="80" r="560" gradientUnits="userSpaceOnUse">
    <stop offset="0" stop-color="#2dd4bf" stop-opacity="0.3"/><stop offset="1" stop-color="#2dd4bf" stop-opacity="0"/>
  </radialGradient></defs><rect width="1280" height="720" fill="url(#hg1)"/>
  <defs><radialGradient id="hg2" cx="990" cy="310" r="300" gradientUnits="userSpaceOnUse">
    <stop offset="0" stop-color="#facc15" stop-opacity="0.14"/><stop offset="1" stop-color="#facc15" stop-opacity="0"/>
  </radialGradient></defs><rect width="1280" height="720" fill="url(#hg2)"/>
  <g fill="#fff" opacity="0.9"><circle cx="800" cy="90" r="8"/><circle cx="852" cy="84" r="8"/><circle cx="904" cy="78" r="8"/><circle cx="956" cy="72" r="8"/><circle cx="1008" cy="66" r="8"/><circle cx="1060" cy="60" r="8"/><circle cx="1112" cy="54" r="8"/><circle cx="1164" cy="48" r="8"/><circle cx="1216" cy="42" r="8"/></g>
  <path d="M0 480 H1280 V720 H0Z" fill="#0d9488" opacity="0.25"/>
  <g stroke="#2dd4bf" stroke-opacity="0.25" stroke-width="2"><line x1="160" y1="480" x2="-1440" y2="720"/><line x1="220" y1="480" x2="-1180" y2="720"/><line x1="280" y1="480" x2="-920" y2="720"/><line x1="340" y1="480" x2="-660" y2="720"/><line x1="400" y1="480" x2="-400" y2="720"/><line x1="460" y1="480" x2="-140" y2="720"/><line x1="520" y1="480" x2="120" y2="720"/><line x1="580" y1="480" x2="380" y2="720"/><line x1="640" y1="480" x2="640" y2="720"/><line x1="700" y1="480" x2="900" y2="720"/><line x1="760" y1="480" x2="1160" y2="720"/><line x1="820" y1="480" x2="1420" y2="720"/><line x1="880" y1="480" x2="1680" y2="720"/><line x1="940" y1="480" x2="1940" y2="720"/><line x1="1000" y1="480" x2="2200" y2="720"/><line x1="1060" y1="480" x2="2460" y2="720"/><line x1="1120" y1="480" x2="2720" y2="720"/><line x1="0" y1="480" x2="1280" y2="480"/><line x1="0" y1="570" x2="1280" y2="570"/></g>
  <ellipse cx="640" cy="650" rx="380" ry="70" fill="none" stroke="#2dd4bf" stroke-opacity="0.25" stroke-width="2"/>
  <g stroke="#facc15" stroke-width="9" stroke-linecap="round" opacity="0.8"><line x1="600" y1="250" x2="850" y2="250"/><line x1="560" y1="300" x2="840" y2="295"/><line x1="520" y1="350" x2="830" y2="340"/></g>
  <ellipse cx="990" cy="575" rx="120" ry="16" fill="#000" opacity="0.3"/>
  
  <defs>
    <clipPath id="ball0c"><circle cx="990" cy="310" r="130"/></clipPath>
    <radialGradient id="ball0s" cx="0.35" cy="0.3" r="0.8">
      <stop offset="0" stop-color="#fff" stop-opacity="0"/>
      <stop offset="1" stop-color="#0b1b33" stop-opacity="0.5"/>
    </radialGradient>
  </defs>
  <circle cx="990" cy="310" r="130" fill="#f8fafc"/>
  <g clip-path="url(#ball0c)">
    <polygon points="990.0,263.2 1034.5,295.5 1017.5,347.9 962.5,347.9 945.5,295.5" fill="#0b1b33"/>
    <g fill="#0b1b33"><polygon points="990.0,221.6 952.9,194.7 967.1,151.0 1012.9,151.0 1027.1,194.7"/><polygon points="1074.1,282.7 1088.2,239.1 1134.1,239.1 1148.3,282.7 1111.2,309.6"/><polygon points="1042.0,381.5 1087.8,381.5 1102.0,425.1 1064.9,452.1 1027.8,425.1"/><polygon points="938.0,381.5 952.2,425.1 915.1,452.1 878.0,425.1 892.2,381.5"/><polygon points="905.9,282.7 868.8,309.6 831.7,282.7 845.9,239.1 891.8,239.1"/></g>
    <g stroke="#0b1b33" stroke-width="4.6" stroke-linecap="round"><line x1="990.0" y1="263.2" x2="990.0" y2="219.0"/><line x1="1034.5" y1="295.5" x2="1076.5" y2="281.9"/><line x1="1017.5" y1="347.9" x2="1043.5" y2="383.6"/><line x1="962.5" y1="347.9" x2="936.5" y2="383.6"/><line x1="945.5" y1="295.5" x2="903.5" y2="281.9"/></g>
    <circle cx="990" cy="310" r="130" fill="url(#ball0s)"/>
  </g>
</svg>
